<mxfile host="app.diagrams.net" modified="2023-06-06T02:32:28.335Z" agent="Mozilla/5.0 (Windows NT 10.0; Win64; x64) AppleWebKit/537.36 (KHTML, like Gecko) Chrome/114.0.0.0 Safari/537.36 Edg/114.0.1823.37" etag="zQTcAL-7iCF4MVJH7Z1o" version="21.3.7" type="github">
  <diagram id="C5RBs43oDa-KdzZeNtuy" name="Page-1">
    <mxGraphModel dx="1137" dy="723" grid="1" gridSize="10" guides="1" tooltips="1" connect="1" arrows="1" fold="1" page="1" pageScale="1" pageWidth="827" pageHeight="1169" math="0" shadow="0">
      <root>
        <mxCell id="WIyWlLk6GJQsqaUBKTNV-0" />
        <mxCell id="WIyWlLk6GJQsqaUBKTNV-1" parent="WIyWlLk6GJQsqaUBKTNV-0" />
        <mxCell id="XxDOFcH-25pgApNe6fPF-22" style="edgeStyle=orthogonalEdgeStyle;rounded=0;orthogonalLoop=1;jettySize=auto;html=1;exitX=0;exitY=0.5;exitDx=0;exitDy=0;entryX=0.5;entryY=0;entryDx=0;entryDy=0;" parent="WIyWlLk6GJQsqaUBKTNV-1" source="WIyWlLk6GJQsqaUBKTNV-6" target="XxDOFcH-25pgApNe6fPF-18" edge="1">
          <mxGeometry relative="1" as="geometry" />
        </mxCell>
        <mxCell id="XxDOFcH-25pgApNe6fPF-42" value="OA" style="edgeLabel;html=1;align=center;verticalAlign=middle;resizable=0;points=[];" parent="XxDOFcH-25pgApNe6fPF-22" vertex="1" connectable="0">
          <mxGeometry x="0.2795" y="1" relative="1" as="geometry">
            <mxPoint x="-1" as="offset" />
          </mxGeometry>
        </mxCell>
        <mxCell id="XxDOFcH-25pgApNe6fPF-23" style="edgeStyle=orthogonalEdgeStyle;rounded=0;orthogonalLoop=1;jettySize=auto;html=1;exitX=1;exitY=0.5;exitDx=0;exitDy=0;entryX=0.5;entryY=0;entryDx=0;entryDy=0;" parent="WIyWlLk6GJQsqaUBKTNV-1" source="WIyWlLk6GJQsqaUBKTNV-6" target="XxDOFcH-25pgApNe6fPF-19" edge="1">
          <mxGeometry relative="1" as="geometry" />
        </mxCell>
        <mxCell id="XxDOFcH-25pgApNe6fPF-43" value="新峰" style="edgeLabel;html=1;align=center;verticalAlign=middle;resizable=0;points=[];" parent="XxDOFcH-25pgApNe6fPF-23" vertex="1" connectable="0">
          <mxGeometry x="0.2937" y="-4" relative="1" as="geometry">
            <mxPoint as="offset" />
          </mxGeometry>
        </mxCell>
        <mxCell id="XxDOFcH-25pgApNe6fPF-24" style="edgeStyle=orthogonalEdgeStyle;rounded=0;orthogonalLoop=1;jettySize=auto;html=1;exitX=1;exitY=0.5;exitDx=0;exitDy=0;entryX=0.5;entryY=0;entryDx=0;entryDy=0;" parent="WIyWlLk6GJQsqaUBKTNV-1" source="WIyWlLk6GJQsqaUBKTNV-6" target="XxDOFcH-25pgApNe6fPF-20" edge="1">
          <mxGeometry relative="1" as="geometry" />
        </mxCell>
        <mxCell id="XxDOFcH-25pgApNe6fPF-44" value="HR" style="edgeLabel;html=1;align=center;verticalAlign=middle;resizable=0;points=[];" parent="XxDOFcH-25pgApNe6fPF-24" vertex="1" connectable="0">
          <mxGeometry x="0.6739" y="-1" relative="1" as="geometry">
            <mxPoint as="offset" />
          </mxGeometry>
        </mxCell>
        <mxCell id="XxDOFcH-25pgApNe6fPF-38" style="edgeStyle=orthogonalEdgeStyle;rounded=0;orthogonalLoop=1;jettySize=auto;html=1;exitX=0;exitY=0.5;exitDx=0;exitDy=0;entryX=0.5;entryY=0;entryDx=0;entryDy=0;" parent="WIyWlLk6GJQsqaUBKTNV-1" source="WIyWlLk6GJQsqaUBKTNV-6" target="XxDOFcH-25pgApNe6fPF-16" edge="1">
          <mxGeometry relative="1" as="geometry" />
        </mxCell>
        <mxCell id="XxDOFcH-25pgApNe6fPF-41" value="ERP" style="edgeLabel;html=1;align=center;verticalAlign=middle;resizable=0;points=[];" parent="XxDOFcH-25pgApNe6fPF-38" vertex="1" connectable="0">
          <mxGeometry x="0.6448" y="-3" relative="1" as="geometry">
            <mxPoint x="3" y="11" as="offset" />
          </mxGeometry>
        </mxCell>
        <mxCell id="WIyWlLk6GJQsqaUBKTNV-6" value="系统类别" style="rhombus;whiteSpace=wrap;html=1;shadow=0;fontFamily=Helvetica;fontSize=12;align=center;strokeWidth=1;spacing=6;spacingTop=-4;" parent="WIyWlLk6GJQsqaUBKTNV-1" vertex="1">
          <mxGeometry x="348" y="200" width="100" height="80" as="geometry" />
        </mxCell>
        <mxCell id="QWxJCDw3qdUrXX-ayBNV-2" style="edgeStyle=orthogonalEdgeStyle;rounded=0;orthogonalLoop=1;jettySize=auto;html=1;exitX=0.5;exitY=1;exitDx=0;exitDy=0;entryX=0.5;entryY=0;entryDx=0;entryDy=0;" parent="WIyWlLk6GJQsqaUBKTNV-1" source="XxDOFcH-25pgApNe6fPF-5" target="F7UKDURot4osKYDAoYZM-0" edge="1">
          <mxGeometry relative="1" as="geometry" />
        </mxCell>
        <mxCell id="XxDOFcH-25pgApNe6fPF-5" value="开始" style="ellipse;whiteSpace=wrap;html=1;aspect=fixed;fillColor=#dae8fc;strokeColor=#6c8ebf;" parent="WIyWlLk6GJQsqaUBKTNV-1" vertex="1">
          <mxGeometry x="373" y="20" width="50" height="50" as="geometry" />
        </mxCell>
        <mxCell id="XxDOFcH-25pgApNe6fPF-6" value="结束" style="ellipse;whiteSpace=wrap;html=1;aspect=fixed;fillColor=#d5e8d4;strokeColor=#82b366;" parent="WIyWlLk6GJQsqaUBKTNV-1" vertex="1">
          <mxGeometry x="374" y="610" width="50" height="50" as="geometry" />
        </mxCell>
        <mxCell id="XxDOFcH-25pgApNe6fPF-31" style="edgeStyle=orthogonalEdgeStyle;rounded=0;orthogonalLoop=1;jettySize=auto;html=1;exitX=0.5;exitY=1;exitDx=0;exitDy=0;entryX=0.5;entryY=0;entryDx=0;entryDy=0;" parent="WIyWlLk6GJQsqaUBKTNV-1" source="XxDOFcH-25pgApNe6fPF-11" target="XxDOFcH-25pgApNe6fPF-30" edge="1">
          <mxGeometry relative="1" as="geometry" />
        </mxCell>
        <mxCell id="XxDOFcH-25pgApNe6fPF-11" value="CIO" style="rounded=1;whiteSpace=wrap;html=1;fontSize=12;glass=0;strokeWidth=1;shadow=0;" parent="WIyWlLk6GJQsqaUBKTNV-1" vertex="1">
          <mxGeometry x="338" y="380" width="120" height="40" as="geometry" />
        </mxCell>
        <mxCell id="XxDOFcH-25pgApNe6fPF-26" style="edgeStyle=orthogonalEdgeStyle;rounded=0;orthogonalLoop=1;jettySize=auto;html=1;exitX=0.5;exitY=1;exitDx=0;exitDy=0;entryX=0;entryY=0.5;entryDx=0;entryDy=0;" parent="WIyWlLk6GJQsqaUBKTNV-1" source="XxDOFcH-25pgApNe6fPF-16" target="XxDOFcH-25pgApNe6fPF-11" edge="1">
          <mxGeometry relative="1" as="geometry" />
        </mxCell>
        <mxCell id="XxDOFcH-25pgApNe6fPF-16" value="ERP运维人员&lt;br&gt;（黎烙华&lt;span style=&quot;background-color: initial;&quot;&gt;）&lt;/span&gt;" style="rounded=1;whiteSpace=wrap;html=1;fontSize=12;glass=0;strokeWidth=1;shadow=0;" parent="WIyWlLk6GJQsqaUBKTNV-1" vertex="1">
          <mxGeometry x="108.5" y="280" width="120" height="40" as="geometry" />
        </mxCell>
        <mxCell id="XxDOFcH-25pgApNe6fPF-17" value="&lt;mxGraphModel&gt;&lt;root&gt;&lt;mxCell id=“0”/&gt;&lt;mxCell id=“1” parent=“0”/&gt;&lt;mxCell id=“2” value=“直线领导” style=“rounded=1;whiteSpace=wrap;html=1;fontSize=12;glass=0;strokeWidth=1;shadow=0;” vertex=“1” parent=“1”&gt;&lt;mxGeometry x=“160” y=“80” width=“120” height=“40” as=“geometry”/&gt;&lt;/mxCell&gt;&lt;/root&gt;&lt;/mxGraphModel&gt;" style="text;whiteSpace=wrap;html=1;" parent="WIyWlLk6GJQsqaUBKTNV-1" vertex="1">
          <mxGeometry x="583.5" y="290" width="60" height="50" as="geometry" />
        </mxCell>
        <mxCell id="XxDOFcH-25pgApNe6fPF-45" style="edgeStyle=orthogonalEdgeStyle;rounded=0;orthogonalLoop=1;jettySize=auto;html=1;exitX=0.5;exitY=1;exitDx=0;exitDy=0;entryX=0;entryY=0.5;entryDx=0;entryDy=0;" parent="WIyWlLk6GJQsqaUBKTNV-1" source="XxDOFcH-25pgApNe6fPF-18" target="XxDOFcH-25pgApNe6fPF-11" edge="1">
          <mxGeometry relative="1" as="geometry" />
        </mxCell>
        <mxCell id="XxDOFcH-25pgApNe6fPF-18" value="OA运维人员&lt;br&gt;（许明辉）" style="rounded=1;whiteSpace=wrap;html=1;fontSize=12;glass=0;strokeWidth=1;shadow=0;" parent="WIyWlLk6GJQsqaUBKTNV-1" vertex="1">
          <mxGeometry x="238.5" y="280" width="120" height="40" as="geometry" />
        </mxCell>
        <mxCell id="XxDOFcH-25pgApNe6fPF-28" style="edgeStyle=orthogonalEdgeStyle;rounded=0;orthogonalLoop=1;jettySize=auto;html=1;exitX=0.5;exitY=1;exitDx=0;exitDy=0;entryX=1;entryY=0.5;entryDx=0;entryDy=0;" parent="WIyWlLk6GJQsqaUBKTNV-1" source="XxDOFcH-25pgApNe6fPF-19" target="XxDOFcH-25pgApNe6fPF-11" edge="1">
          <mxGeometry relative="1" as="geometry" />
        </mxCell>
        <mxCell id="XxDOFcH-25pgApNe6fPF-19" value="新峰运维人员&lt;br&gt;（庞国飞）" style="rounded=1;whiteSpace=wrap;html=1;fontSize=12;glass=0;strokeWidth=1;shadow=0;" parent="WIyWlLk6GJQsqaUBKTNV-1" vertex="1">
          <mxGeometry x="438.5" y="280" width="120" height="40" as="geometry" />
        </mxCell>
        <mxCell id="XxDOFcH-25pgApNe6fPF-29" style="edgeStyle=orthogonalEdgeStyle;rounded=0;orthogonalLoop=1;jettySize=auto;html=1;exitX=0.5;exitY=1;exitDx=0;exitDy=0;entryX=1;entryY=0.5;entryDx=0;entryDy=0;" parent="WIyWlLk6GJQsqaUBKTNV-1" source="XxDOFcH-25pgApNe6fPF-20" target="XxDOFcH-25pgApNe6fPF-11" edge="1">
          <mxGeometry relative="1" as="geometry" />
        </mxCell>
        <mxCell id="XxDOFcH-25pgApNe6fPF-20" value="HR运维人员&lt;br&gt;（何青云）" style="rounded=1;whiteSpace=wrap;html=1;fontSize=12;glass=0;strokeWidth=1;shadow=0;" parent="WIyWlLk6GJQsqaUBKTNV-1" vertex="1">
          <mxGeometry x="568.5" y="280" width="120" height="40" as="geometry" />
        </mxCell>
        <mxCell id="XxDOFcH-25pgApNe6fPF-33" style="edgeStyle=orthogonalEdgeStyle;rounded=0;orthogonalLoop=1;jettySize=auto;html=1;exitX=0.5;exitY=1;exitDx=0;exitDy=0;" parent="WIyWlLk6GJQsqaUBKTNV-1" source="XxDOFcH-25pgApNe6fPF-30" target="XxDOFcH-25pgApNe6fPF-32" edge="1">
          <mxGeometry relative="1" as="geometry" />
        </mxCell>
        <mxCell id="XxDOFcH-25pgApNe6fPF-30" value="IT运维人员" style="rounded=1;whiteSpace=wrap;html=1;fontSize=12;glass=0;strokeWidth=1;shadow=0;" parent="WIyWlLk6GJQsqaUBKTNV-1" vertex="1">
          <mxGeometry x="338" y="490" width="120" height="40" as="geometry" />
        </mxCell>
        <mxCell id="XxDOFcH-25pgApNe6fPF-35" style="edgeStyle=orthogonalEdgeStyle;rounded=0;orthogonalLoop=1;jettySize=auto;html=1;exitX=0.5;exitY=1;exitDx=0;exitDy=0;entryX=0.5;entryY=0;entryDx=0;entryDy=0;" parent="WIyWlLk6GJQsqaUBKTNV-1" source="XxDOFcH-25pgApNe6fPF-32" target="XxDOFcH-25pgApNe6fPF-6" edge="1">
          <mxGeometry relative="1" as="geometry" />
        </mxCell>
        <mxCell id="XxDOFcH-25pgApNe6fPF-32" value="申请人确认" style="rounded=1;whiteSpace=wrap;html=1;fontSize=12;glass=0;strokeWidth=1;shadow=0;" parent="WIyWlLk6GJQsqaUBKTNV-1" vertex="1">
          <mxGeometry x="338" y="550" width="120" height="40" as="geometry" />
        </mxCell>
        <mxCell id="QWxJCDw3qdUrXX-ayBNV-4" style="edgeStyle=orthogonalEdgeStyle;rounded=0;orthogonalLoop=1;jettySize=auto;html=1;exitX=0.5;exitY=1;exitDx=0;exitDy=0;entryX=0.5;entryY=0;entryDx=0;entryDy=0;" parent="WIyWlLk6GJQsqaUBKTNV-1" source="F7UKDURot4osKYDAoYZM-0" target="WIyWlLk6GJQsqaUBKTNV-6" edge="1">
          <mxGeometry relative="1" as="geometry" />
        </mxCell>
        <mxCell id="F7UKDURot4osKYDAoYZM-0" value="提出修改申请" style="rounded=1;whiteSpace=wrap;html=1;fontSize=12;glass=0;strokeWidth=1;shadow=0;" parent="WIyWlLk6GJQsqaUBKTNV-1" vertex="1">
          <mxGeometry x="338" y="90" width="120" height="40" as="geometry" />
        </mxCell>
        <mxCell id="QWxJCDw3qdUrXX-ayBNV-5" value="直属领导" style="rounded=1;whiteSpace=wrap;html=1;fontSize=12;glass=0;strokeWidth=1;shadow=0;" parent="WIyWlLk6GJQsqaUBKTNV-1" vertex="1">
          <mxGeometry x="339" y="140" width="120" height="40" as="geometry" />
        </mxCell>
        <mxCell id="QWxJCDw3qdUrXX-ayBNV-7" value="ERP领域负责人" style="rounded=1;whiteSpace=wrap;html=1;fontSize=12;glass=0;strokeWidth=1;shadow=0;" parent="WIyWlLk6GJQsqaUBKTNV-1" vertex="1">
          <mxGeometry x="107.5" y="330" width="120" height="40" as="geometry" />
        </mxCell>
        <mxCell id="QWxJCDw3qdUrXX-ayBNV-8" value="OA领域负责人" style="rounded=1;whiteSpace=wrap;html=1;fontSize=12;glass=0;strokeWidth=1;shadow=0;" parent="WIyWlLk6GJQsqaUBKTNV-1" vertex="1">
          <mxGeometry x="237.5" y="330" width="120" height="40" as="geometry" />
        </mxCell>
        <mxCell id="QWxJCDw3qdUrXX-ayBNV-9" value="新峰领域负责人" style="rounded=1;whiteSpace=wrap;html=1;fontSize=12;glass=0;strokeWidth=1;shadow=0;" parent="WIyWlLk6GJQsqaUBKTNV-1" vertex="1">
          <mxGeometry x="437.5" y="330" width="120" height="40" as="geometry" />
        </mxCell>
        <mxCell id="QWxJCDw3qdUrXX-ayBNV-10" value="HR领域负责人" style="rounded=1;whiteSpace=wrap;html=1;fontSize=12;glass=0;strokeWidth=1;shadow=0;arcSize=0;" parent="WIyWlLk6GJQsqaUBKTNV-1" vertex="1">
          <mxGeometry x="567.5" y="330" width="120" height="40" as="geometry" />
        </mxCell>
        <mxCell id="QWxJCDw3qdUrXX-ayBNV-12" value="部门长" style="rounded=1;whiteSpace=wrap;html=1;fontSize=12;glass=0;strokeWidth=1;shadow=0;" parent="WIyWlLk6GJQsqaUBKTNV-1" vertex="1">
          <mxGeometry x="338" y="435" width="120" height="40" as="geometry" />
        </mxCell>
      </root>
    </mxGraphModel>
  </diagram>
</mxfile>
